<svg width="132" height="39" viewBox="0 0 132 39" fill="none" xmlns="http://www.w3.org/2000/svg">
<path d="M89.232 26.848C88.816 27.2 88.272 27.488 87.6 27.712C86.96 27.904 86.208 28 85.344 28C84.192 28 83.232 27.856 82.464 27.568C81.728 27.28 81.248 26.784 81.024 26.08C80.128 23.264 79.392 20.992 78.816 19.264C78.24 17.504 77.792 15.968 77.472 14.656H77.232C77.136 16.544 77.056 18.272 76.992 19.84C76.96 21.376 76.928 22.88 76.896 24.352C76.896 25.824 76.864 27.312 76.8 28.816C76.768 30.32 76.704 31.984 76.608 33.808C76.192 33.968 75.648 34.096 74.976 34.192C74.304 34.32 73.632 34.384 72.96 34.384C71.552 34.384 70.448 34.16 69.648 33.712C68.88 33.264 68.496 32.448 68.496 31.264L69.888 6.784C70.144 6.368 70.704 5.92 71.568 5.44C72.432 4.96 73.648 4.72 75.216 4.72C76.912 4.72 78.24 4.992 79.2 5.536C80.16 6.048 80.864 6.896 81.312 8.08C81.6 8.848 81.904 9.728 82.224 10.72C82.576 11.712 82.912 12.736 83.232 13.792C83.584 14.848 83.92 15.904 84.24 16.96C84.56 17.984 84.848 18.912 85.104 19.744H85.344C86.112 17.056 86.88 14.464 87.648 11.968C88.416 9.44 89.12 7.328 89.76 5.632C90.24 5.376 90.848 5.168 91.584 5.008C92.352 4.816 93.2 4.72 94.128 4.72C95.696 4.72 96.976 4.96 97.968 5.44C98.96 5.888 99.536 6.544 99.696 7.408C99.824 8.048 99.952 9.04 100.08 10.384C100.24 11.696 100.4 13.184 100.56 14.848C100.72 16.512 100.88 18.272 101.04 20.128C101.2 21.984 101.344 23.776 101.472 25.504C101.632 27.2 101.76 28.768 101.856 30.208C101.952 31.616 102.016 32.704 102.048 33.472C101.504 33.792 100.928 34.016 100.32 34.144C99.744 34.304 98.992 34.384 98.064 34.384C96.848 34.384 95.824 34.176 94.992 33.76C94.16 33.344 93.712 32.528 93.648 31.312C93.456 27.824 93.328 24.688 93.264 21.904C93.232 19.12 93.168 16.784 93.072 14.896H92.832C92.512 16.144 92.048 17.712 91.44 19.6C90.832 21.488 90.096 23.904 89.232 26.848Z" fill="#CBFFA3"/>
<path d="M78.4188 15.9539C81.1727 17.9506 81.1721 22.0547 78.4178 24.0506L59.6802 37.6283C56.3742 40.0239 51.7458 37.6616 51.7463 33.5788L51.75 6.41799C51.7505 2.33521 56.3795 -0.0258121 59.6849 2.37078L78.4188 15.9539Z" fill="#FF8B49"/>
<ellipse cx="15.5" cy="21" rx="15.5" ry="15" fill="#7AE898"/>
<circle cx="25.5" cy="3.5" r="3.5" fill="#FE8B8B"/>
<rect width="9.00135" height="23.2884" rx="3" transform="matrix(-0.998605 -0.052803 0.0471228 -0.998889 130.973 33.4244)" fill="#71B0DD"/>
<rect width="9.00135" height="23.2884" rx="3" transform="matrix(-0.998605 -0.052803 0.0471228 -0.998889 117.989 32.7379)" fill="#71B0DD"/>
<path d="M21.2988 8.6582L20.3691 15.6641C20.0482 15.5755 19.7272 15.5146 19.4062 15.4814C19.0853 15.4482 18.7643 15.4316 18.4434 15.4316C17.6243 15.4316 16.8441 15.5423 16.1025 15.7637C15.361 15.974 14.7025 16.3005 14.127 16.7432C13.5625 17.1859 13.1087 17.7393 12.7656 18.4033C12.4336 19.0674 12.2676 19.8477 12.2676 20.7441C12.2676 21.3197 12.3561 21.8177 12.5332 22.2383C12.7214 22.6589 12.9814 23.0075 13.3135 23.2842C13.6455 23.5609 14.0384 23.7656 14.4922 23.8984C14.946 24.0312 15.444 24.0977 15.9863 24.0977C16.3958 24.0977 16.8219 24.0534 17.2646 23.9648C17.7074 23.8763 18.1445 23.7601 18.5762 23.6162C19.0078 23.4723 19.4284 23.3063 19.8379 23.1182C20.2474 22.93 20.6237 22.7363 20.9668 22.5371L20.3027 30.3398C19.8711 30.5612 19.4007 30.7604 18.8916 30.9375C18.3936 31.1035 17.8789 31.2529 17.3477 31.3857C16.8164 31.5075 16.2852 31.6016 15.7539 31.668C15.2227 31.7344 14.7135 31.7676 14.2266 31.7676C12.821 31.7676 11.5094 31.5075 10.292 30.9873C9.07454 30.4671 8.01758 29.7533 7.12109 28.8457C6.22461 27.9382 5.51628 26.8701 4.99609 25.6416C4.48698 24.402 4.23242 23.0684 4.23242 21.6406C4.23242 19.748 4.50358 17.9661 5.0459 16.2949C5.58822 14.6126 6.38509 13.1406 7.43652 11.8789C8.48796 10.6172 9.78841 9.62109 11.3379 8.89062C12.8984 8.16016 14.6914 7.79492 16.7168 7.79492C17.4805 7.79492 18.2607 7.85579 19.0576 7.97754C19.8656 8.09928 20.6126 8.32617 21.2988 8.6582ZM31.3096 8.625L29.4834 31.2363L22.4775 31.6016V9.08984L31.3096 8.625ZM55.0498 8.19336L53.8545 30.7051L45.1553 31.502L40.5068 19.4492L39.7764 31.7344H32.3057L32.9033 8.19336L41.2041 7.79492L46.9482 19.748L47.2139 8.45898L55.0498 8.19336ZM72.1328 8.06055C72.0664 9.10091 72.0055 10.1302 71.9502 11.1484C71.8949 12.1667 71.8229 13.196 71.7344 14.2363L64.6953 14.6016L64.5293 16.6934H69.4766L69.1113 21.8398L64.1309 22.0059L63.9648 24.4297H68.082H71.0039C70.9375 25.6471 70.8656 26.859 70.7881 28.0654C70.7217 29.2607 70.6608 30.4616 70.6055 31.668L56.2949 32L56.8262 8.06055H72.1328ZM98.3799 7.79492L96.8525 32.166L89.2822 32.498L89.3486 19.6484L85.9287 30.0078H83.0068L80.3838 20.7441L80.3506 31.502L72.6807 31.7344L73.0127 8.79102L81.5459 8.45898L84.9326 19.4492L89.4482 7.79492H98.3799ZM120.244 30.5723L112.01 31.6348L111.014 27.8828H107.229L106.398 31.6348L97.9316 30.8047L104.539 8.69141L113.77 8.22656L120.244 30.5723ZM110.416 22.8027L109.154 17.0254L107.926 22.8027H110.416Z" fill="black"/>
</svg>
